<svg version="1.0" xmlns="http://www.w3.org/2000/svg" viewBox="0 0 225.000000 225.000000"
 preserveAspectRatio="xMidYMid meet">
<rect width="100%" height="100%" fill="#ffffff"/>
<g transform="translate(0.000000,225.000000) scale(0.100000,-0.100000)"
:fill="userColor" stroke="none">
    <path d="M0 1125 l0 -1125 1125 0 1125 0 0 1125 0 1125 -1125 0 -1125 0 0
    -1125z m560 500 c53 -27 76 -109 48 -170 -32 -71 -142 -86 -202 -26 -27 28
    -31 38 -31 87 0 51 3 58 37 90 30 27 46 34 78 34 23 0 54 -7 70 -15z m1375
    -15 c82 -77 38 -207 -72 -217 -39 -4 -55 0 -83 19 -40 27 -64 86 -55 129 8 35
    41 78 69 90 37 16 114 4 141 -21z m39 -543 c12 -9 17 -23 14 -47 -3 -31 -10
    -39 -58 -65 -88 -47 -246 -95 -369 -113 -97 -13 -129 -14 -223 -4 -154 18
    -341 84 -371 133 -15 24 -1 64 26 76 20 9 35 6 88 -19 229 -110 544 -100 784
    25 56 29 83 33 109 14z"/>
</g>
</svg>